<mxfile host="app.diagrams.net" agent="Mozilla/5.0 (X11; Linux x86_64) AppleWebKit/537.36 (KHTML, like Gecko) Chrome/139.0.0.0 Safari/537.36" version="28.1.0">
  <diagram name="Page-1" id="C61vDX3iiuU-gGsL_CvH">
    <mxGraphModel dx="1144" dy="662" grid="1" gridSize="10" guides="1" tooltips="1" connect="1" arrows="1" fold="1" page="1" pageScale="1" pageWidth="850" pageHeight="1100" math="0" shadow="0">
      <root>
        <mxCell id="0" />
        <mxCell id="1" parent="0" />
        <mxCell id="6_yw3y2rNk3XzhghiecS-18" style="rounded=0;orthogonalLoop=1;jettySize=auto;html=1;exitX=0;exitY=1;exitDx=0;exitDy=0;entryX=1;entryY=0;entryDx=0;entryDy=0;" edge="1" parent="1" source="6_yw3y2rNk3XzhghiecS-1" target="6_yw3y2rNk3XzhghiecS-3">
          <mxGeometry relative="1" as="geometry" />
        </mxCell>
        <mxCell id="6_yw3y2rNk3XzhghiecS-19" style="edgeStyle=orthogonalEdgeStyle;rounded=0;orthogonalLoop=1;jettySize=auto;html=1;exitX=0.5;exitY=1;exitDx=0;exitDy=0;" edge="1" parent="1" source="6_yw3y2rNk3XzhghiecS-1" target="6_yw3y2rNk3XzhghiecS-2">
          <mxGeometry relative="1" as="geometry" />
        </mxCell>
        <mxCell id="6_yw3y2rNk3XzhghiecS-20" style="rounded=0;orthogonalLoop=1;jettySize=auto;html=1;exitX=1;exitY=1;exitDx=0;exitDy=0;entryX=0;entryY=0;entryDx=0;entryDy=0;" edge="1" parent="1" source="6_yw3y2rNk3XzhghiecS-1" target="6_yw3y2rNk3XzhghiecS-4">
          <mxGeometry relative="1" as="geometry" />
        </mxCell>
        <mxCell id="6_yw3y2rNk3XzhghiecS-1" value="" style="ellipse;whiteSpace=wrap;html=1;aspect=fixed;" vertex="1" parent="1">
          <mxGeometry x="390" y="60" width="80" height="80" as="geometry" />
        </mxCell>
        <mxCell id="6_yw3y2rNk3XzhghiecS-23" style="edgeStyle=orthogonalEdgeStyle;rounded=0;orthogonalLoop=1;jettySize=auto;html=1;" edge="1" parent="1" source="6_yw3y2rNk3XzhghiecS-2" target="6_yw3y2rNk3XzhghiecS-7">
          <mxGeometry relative="1" as="geometry" />
        </mxCell>
        <mxCell id="6_yw3y2rNk3XzhghiecS-2" value="" style="ellipse;whiteSpace=wrap;html=1;aspect=fixed;" vertex="1" parent="1">
          <mxGeometry x="390" y="240" width="80" height="80" as="geometry" />
        </mxCell>
        <mxCell id="6_yw3y2rNk3XzhghiecS-21" style="rounded=0;orthogonalLoop=1;jettySize=auto;html=1;exitX=0;exitY=1;exitDx=0;exitDy=0;entryX=0.5;entryY=0;entryDx=0;entryDy=0;" edge="1" parent="1" source="6_yw3y2rNk3XzhghiecS-3" target="6_yw3y2rNk3XzhghiecS-5">
          <mxGeometry relative="1" as="geometry" />
        </mxCell>
        <mxCell id="6_yw3y2rNk3XzhghiecS-22" style="rounded=0;orthogonalLoop=1;jettySize=auto;html=1;exitX=1;exitY=1;exitDx=0;exitDy=0;entryX=0.5;entryY=0;entryDx=0;entryDy=0;" edge="1" parent="1" source="6_yw3y2rNk3XzhghiecS-3" target="6_yw3y2rNk3XzhghiecS-6">
          <mxGeometry relative="1" as="geometry" />
        </mxCell>
        <mxCell id="6_yw3y2rNk3XzhghiecS-3" value="" style="ellipse;whiteSpace=wrap;html=1;aspect=fixed;" vertex="1" parent="1">
          <mxGeometry x="90" y="240" width="80" height="80" as="geometry" />
        </mxCell>
        <mxCell id="6_yw3y2rNk3XzhghiecS-4" value="" style="ellipse;whiteSpace=wrap;html=1;aspect=fixed;" vertex="1" parent="1">
          <mxGeometry x="690" y="240" width="80" height="80" as="geometry" />
        </mxCell>
        <mxCell id="6_yw3y2rNk3XzhghiecS-5" value="" style="ellipse;whiteSpace=wrap;html=1;aspect=fixed;" vertex="1" parent="1">
          <mxGeometry x="20" y="430" width="80" height="80" as="geometry" />
        </mxCell>
        <mxCell id="6_yw3y2rNk3XzhghiecS-6" value="" style="ellipse;whiteSpace=wrap;html=1;aspect=fixed;" vertex="1" parent="1">
          <mxGeometry x="170" y="430" width="80" height="80" as="geometry" />
        </mxCell>
        <mxCell id="6_yw3y2rNk3XzhghiecS-24" style="rounded=0;orthogonalLoop=1;jettySize=auto;html=1;entryX=1;entryY=0;entryDx=0;entryDy=0;" edge="1" parent="1" source="6_yw3y2rNk3XzhghiecS-7" target="6_yw3y2rNk3XzhghiecS-8">
          <mxGeometry relative="1" as="geometry" />
        </mxCell>
        <mxCell id="6_yw3y2rNk3XzhghiecS-25" style="rounded=0;orthogonalLoop=1;jettySize=auto;html=1;exitX=0.36;exitY=0.965;exitDx=0;exitDy=0;entryX=0.5;entryY=0;entryDx=0;entryDy=0;exitPerimeter=0;" edge="1" parent="1" source="6_yw3y2rNk3XzhghiecS-7" target="6_yw3y2rNk3XzhghiecS-9">
          <mxGeometry relative="1" as="geometry" />
        </mxCell>
        <mxCell id="6_yw3y2rNk3XzhghiecS-26" style="rounded=0;orthogonalLoop=1;jettySize=auto;html=1;exitX=0.635;exitY=0.96;exitDx=0;exitDy=0;entryX=0.5;entryY=0;entryDx=0;entryDy=0;exitPerimeter=0;" edge="1" parent="1" source="6_yw3y2rNk3XzhghiecS-7" target="6_yw3y2rNk3XzhghiecS-10">
          <mxGeometry relative="1" as="geometry" />
        </mxCell>
        <mxCell id="6_yw3y2rNk3XzhghiecS-27" style="rounded=0;orthogonalLoop=1;jettySize=auto;html=1;exitX=1;exitY=1;exitDx=0;exitDy=0;entryX=0;entryY=0;entryDx=0;entryDy=0;" edge="1" parent="1" source="6_yw3y2rNk3XzhghiecS-7" target="6_yw3y2rNk3XzhghiecS-11">
          <mxGeometry relative="1" as="geometry" />
        </mxCell>
        <mxCell id="6_yw3y2rNk3XzhghiecS-7" value="" style="ellipse;whiteSpace=wrap;html=1;aspect=fixed;" vertex="1" parent="1">
          <mxGeometry x="390" y="440" width="80" height="80" as="geometry" />
        </mxCell>
        <mxCell id="6_yw3y2rNk3XzhghiecS-8" value="" style="ellipse;whiteSpace=wrap;html=1;aspect=fixed;" vertex="1" parent="1">
          <mxGeometry x="185" y="610" width="80" height="80" as="geometry" />
        </mxCell>
        <mxCell id="6_yw3y2rNk3XzhghiecS-9" value="" style="ellipse;whiteSpace=wrap;html=1;aspect=fixed;" vertex="1" parent="1">
          <mxGeometry x="325" y="610" width="80" height="80" as="geometry" />
        </mxCell>
        <mxCell id="6_yw3y2rNk3XzhghiecS-10" value="" style="ellipse;whiteSpace=wrap;html=1;aspect=fixed;" vertex="1" parent="1">
          <mxGeometry x="455" y="610" width="80" height="80" as="geometry" />
        </mxCell>
        <mxCell id="6_yw3y2rNk3XzhghiecS-11" value="" style="ellipse;whiteSpace=wrap;html=1;aspect=fixed;" vertex="1" parent="1">
          <mxGeometry x="585" y="610" width="80" height="80" as="geometry" />
        </mxCell>
        <mxCell id="6_yw3y2rNk3XzhghiecS-31" value="root" style="text;html=1;align=center;verticalAlign=middle;whiteSpace=wrap;rounded=0;" vertex="1" parent="1">
          <mxGeometry x="400" y="20" width="60" height="30" as="geometry" />
        </mxCell>
        <mxCell id="6_yw3y2rNk3XzhghiecS-32" value="folha" style="text;html=1;align=center;verticalAlign=middle;whiteSpace=wrap;rounded=0;" vertex="1" parent="1">
          <mxGeometry x="335" y="700" width="60" height="30" as="geometry" />
        </mxCell>
        <mxCell id="6_yw3y2rNk3XzhghiecS-33" value="pai" style="text;html=1;align=center;verticalAlign=middle;resizable=0;points=[];autosize=1;strokeColor=none;fillColor=none;" vertex="1" parent="1">
          <mxGeometry x="440" y="320" width="40" height="30" as="geometry" />
        </mxCell>
        <mxCell id="6_yw3y2rNk3XzhghiecS-34" value="filho" style="text;html=1;align=center;verticalAlign=middle;resizable=0;points=[];autosize=1;strokeColor=none;fillColor=none;" vertex="1" parent="1">
          <mxGeometry x="435" y="410" width="50" height="30" as="geometry" />
        </mxCell>
        <mxCell id="6_yw3y2rNk3XzhghiecS-35" value="nÃ³ interno" style="text;html=1;align=center;verticalAlign=middle;resizable=0;points=[];autosize=1;strokeColor=none;fillColor=none;" vertex="1" parent="1">
          <mxGeometry x="50" y="210" width="80" height="30" as="geometry" />
        </mxCell>
      </root>
    </mxGraphModel>
  </diagram>
</mxfile>
